# This file uses centimeters as units for non-parametric coordinates.

mtllib suelo_a3.mtl
g default
v 0.240845 0.398260 -0.961182
v -0.878052 0.400650 -0.947876
v 0.895264 0.027948 0.960266
v -0.929810 0.394615 0.201355
v -0.905762 0.034048 -0.968750
v 0.958618 0.351521 0.908752
v -0.405396 0.404144 -0.283203
v 0.937622 0.015942 -0.949585
v -0.970337 0.326519 0.575073
v -0.966553 0.393246 0.863953
v 0.494873 0.412439 -0.575745
v -0.509888 0.403845 0.592407
v 0.959229 0.362947 -0.888245
v -0.914429 0.356571 0.959290
v 0.958984 0.029898 -0.907288
v 0.942017 0.399395 0.870728
v -0.950562 0.015419 -0.946472
v -0.927856 0.349277 -0.964783
v 0.223022 0.398043 0.915344
v 0.958862 0.028301 0.896301
v -0.709595 0.402748 -0.354126
v -0.093994 0.420225 -0.685669
v 0.702881 0.406622 0.281067
v -0.970215 0.310236 -0.348633
v 0.677734 0.419186 -0.023865
v 0.944214 0.395741 0.098938
v -0.897949 0.026302 0.960205
v 0.414185 0.404160 -0.381348
v 0.117310 0.024113 -0.954468
v -0.258179 0.418968 -0.015930
v -0.875488 0.398304 0.928284
v -0.907959 0.399635 0.550049
v -0.151611 0.406330 -0.931824
v 0.876587 0.398466 -0.938904
v 0.892212 0.357299 -0.967712
v 0.184082 0.415760 0.011719
v -0.970093 0.029907 0.900818
v -0.405518 0.372158 -0.967773
v -0.117188 0.310466 -0.968994
v -0.970093 0.028746 -0.900757
v 0.959106 0.350390 -0.146118
v 0.920166 0.401709 -0.134949
v -0.969727 0.356146 -0.908325
v -0.438843 0.417753 -0.589600
v 0.321655 0.340286 0.960388
v 0.898804 0.365187 0.955383
v 0.416748 0.406080 -0.934265
v -0.319824 0.414307 0.297485
v -0.540649 0.407377 -0.695312
v 0.257812 0.408224 0.276306
v 0.897705 0.031626 -0.968872
v -0.226074 0.429028 0.081360
v 0.917358 0.401093 -0.597961
v 0.939453 0.018154 0.942383
v -0.963501 0.394182 -0.851135
v 0.615112 0.398247 0.931580
v -0.952148 0.017263 0.941162
v -0.952515 0.317075 0.939575
v -0.728271 0.400747 -0.921509
v 0.941284 0.332273 -0.950195
v -0.719849 0.350558 -0.967957
v 0.288086 0.401930 0.730469
v -0.916138 0.399509 -0.315430
v 0.926025 0.399427 0.656372
v -0.034302 0.403421 -0.308167
v -0.797241 0.401583 0.138977
v 0.082397 0.414820 -0.749512
v 0.491333 0.364779 -0.968445
vt 0.663807 0.726611
vt 0.657215 0.617272
vt 0.722243 0.683075
vt 0.470530 0.729308
vt 0.296915 0.680891
vt 0.605324 0.681699
vt 0.778926 0.926188
vt 0.958726 0.976264
vt 0.650068 0.984246
vt 0.393889 0.598239
vt 0.609245 0.595118
vt 0.294010 0.652786
vt 0.656679 0.837764
vt 0.706681 0.847892
vt 0.652672 0.898457
vt 0.606434 0.652662
vt 0.574661 0.736019
vt 0.520293 0.739902
vt 0.863247 0.850000
vt 0.956145 0.897690
vt 0.958244 0.920965
vt 0.727322 0.460217
vt 0.664318 0.402180
vt 0.865019 0.436074
vt 0.789760 0.723854
vt 0.689716 0.722199
vt 0.820505 0.916866
vt 0.949249 0.836309
vt 0.857631 0.832350
vt 0.958634 0.843029
vt 0.710899 0.831623
vt 0.677531 0.538604
vt 0.888391 0.723930
vt 0.830258 0.692162
vt 0.901525 0.661797
vt 0.860004 0.514600
vt 0.760144 0.511216
vt 0.770881 0.565430
vt 0.745517 0.611692
vt 0.887360 0.628253
vt 0.809748 0.615895
vt 0.641317 0.932569
vt 0.652231 0.927179
vt 0.983676 0.715334
vt 0.968073 0.724018
vt 0.974652 0.665088
vt 0.870973 0.391228
vt 0.657437 0.393254
vt 0.643954 0.851175
vt 0.642006 0.986717
vt 0.977907 0.411604
vt 0.853953 0.404087
vt 0.915251 0.912124
vt 0.430347 0.678362
vt 0.613202 0.676835
vt 0.610983 0.734857
vt 0.970362 0.843890
vt 0.963979 0.901611
vt 0.691260 0.734039
vt 0.745660 0.732004
vt 0.970753 0.916763
vt 0.952096 0.912287
vt 0.967457 0.977323
vt 0.293333 0.594027
vt 0.285700 0.654465
vt 0.692945 0.623989
vt 0.770019 0.834363
vt 0.739872 0.664739
vt 0.974783 0.585110
vt 0.936914 0.513502
vt 0.975261 0.448555
vt 0.932695 0.566226
vt 0.847385 0.560419
vt 0.616436 0.654243
vt 0.776533 0.548545
vt 0.648444 0.412672
vt 0.658504 0.467399
vt 0.799640 0.681220
vt 0.637856 0.917025
vt 0.857882 0.728869
vt 0.970951 0.732642
vt 0.901505 0.732943
vt 0.296020 0.736186
vt 0.365744 0.738402
vt 0.645803 0.902161
vt 0.476414 0.747012
vt 0.408838 0.744334
vt 0.780601 0.915134
vt 0.978886 0.544721
vt 0.971780 0.830716
vt 0.649001 0.709853
vt 0.921514 0.401535
vt 0.970371 0.394898
vt 0.287083 0.731453
vt 0.289929 0.676728
vt 0.701601 0.916487
vt 0.637785 0.843522
vt 0.616701 0.602009
vt 0.634550 0.925371
vt 0.602707 0.744411
vt 0.654564 0.527711
vn -0.038896 0.994313 -0.099139
vn -0.312714 0.949822 0.007003
vn -0.023614 0.999588 -0.016296
vn -0.001420 0.022653 -0.999742
vn 0.029272 -0.100317 -0.994525
vn -0.037545 -0.163917 -0.985759
vn 0.999305 0.037281 -0.000141
vn 0.999852 -0.000021 0.017217
vn 0.999721 -0.001004 -0.023584
vn -0.001509 0.058409 0.998292
vn -0.014938 0.051456 0.998564
vn 0.026449 0.007247 0.999624
vn -0.924010 0.379991 0.042564
vn -0.997235 0.074152 -0.004825
vn -0.980023 -0.197132 0.026345
vn 0.026449 0.007247 0.999624
vn -0.014938 0.051456 0.998564
vn -0.010706 0.002128 0.999941
vn -0.003599 0.109915 -0.993935
vn -0.004099 0.176525 -0.984288
vn -0.037545 -0.163917 -0.985759
vn -0.980023 -0.197132 0.026345
vn -0.998529 0.054094 0.003583
vn -0.983533 -0.179454 -0.021443
vn 0.999305 0.037281 -0.000141
vn 0.997459 0.024694 0.066830
vn 0.999852 -0.000021 0.017217
vn -0.007896 0.999849 0.015500
vn -0.012404 0.974358 0.224663
vn 0.002351 0.999850 0.017185
vn -0.006272 0.964561 -0.263785
vn -0.000498 0.984180 -0.177172
vn -0.023614 0.999588 -0.016296
vn 0.999305 0.037281 -0.000141
vn 0.835027 0.550209 -0.000683
vn 0.997459 0.024694 0.066830
vn -0.505266 0.862857 -0.013532
vn -0.998529 0.054094 0.003583
vn -0.312714 0.949822 0.007003
vn -0.998529 0.054094 0.003583
vn -0.995476 0.045215 -0.083563
vn -0.983533 -0.179454 -0.021443
vn -0.924010 0.379991 0.042564
vn -0.296451 0.955020 -0.007265
vn -0.997235 0.074152 -0.004825
vn -0.007896 0.999849 0.015500
vn -0.027980 0.999608 0.001105
vn -0.012404 0.974358 0.224663
vn 0.019330 0.996285 -0.083923
vn 0.013643 0.999774 0.016315
vn 0.011991 0.999880 -0.009813
vn 0.009829 0.999761 0.019507
vn -0.010582 0.999589 0.026635
vn 0.002351 0.999850 0.017185
vn -0.021477 0.999253 -0.032128
vn -0.013370 0.999911 0.000435
vn -0.027980 0.999608 0.001105
vn -0.017921 0.999838 -0.001521
vn -0.000719 0.999964 -0.008463
vn -0.021477 0.999253 -0.032128
vn 0.755514 0.098085 -0.647748
vn 0.991204 0.129307 -0.028194
vn 0.999721 -0.001004 -0.023584
vn 0.991204 0.129307 -0.028194
vn 0.061300 0.989081 -0.134023
vn 0.113376 0.993418 -0.016352
vn -0.001509 0.058409 0.998292
vn -0.012404 0.974358 0.224663
vn -0.014938 0.051456 0.998564
vn -0.980023 -0.197132 0.026345
vn -0.865204 0.062633 0.497493
vn -0.924010 0.379991 0.042564
vn 0.605669 -0.217342 -0.765459
vn 0.755514 0.098085 -0.647748
vn 0.999721 -0.001004 -0.023584
vn 0.097021 0.994320 0.043763
vn -0.012404 0.974358 0.224663
vn 0.004433 0.828306 0.560258
vn 0.835027 0.550209 -0.000683
vn 0.129996 0.991462 0.010252
vn 0.997459 0.024694 0.066830
vn -0.037545 -0.163917 -0.985759
vn -0.001180 -0.857885 -0.513841
vn -0.647437 -0.483785 -0.588878
vn -0.647437 -0.483785 -0.588878
vn -0.264790 0.077417 -0.961194
vn -0.037545 -0.163917 -0.985759
vn -0.995476 0.045215 -0.083563
vn -0.264790 0.077417 -0.961194
vn -0.647437 -0.483785 -0.588878
vn -0.003599 0.109915 -0.993935
vn -0.000498 0.984180 -0.177172
vn -0.004099 0.176525 -0.984288
vn 0.081863 0.162469 0.983312
vn 0.997459 0.024694 0.066830
vn 0.097021 0.994320 0.043763
vn 0.081863 0.162469 0.983312
vn 0.695628 0.003671 0.718393
vn 0.997459 0.024694 0.066830
vn 0.081863 0.162469 0.983312
vn 0.026449 0.007247 0.999624
vn 0.695628 0.003671 0.718393
vn -0.013254 0.999883 0.007701
vn -0.027980 0.999608 0.001105
vn -0.013370 0.999911 0.000435
vn -0.606529 0.795039 -0.005919
vn -0.312714 0.949822 0.007003
vn -0.998529 0.054094 0.003583
vn -0.017921 0.999838 -0.001521
vn 0.013643 0.999774 0.016315
vn -0.000719 0.999964 -0.008463
vn -0.020535 0.999776 0.005138
vn -0.013254 0.999883 0.007701
vn -0.013370 0.999911 0.000435
vn 0.222515 0.974928 0.001284
vn 0.014416 0.999770 0.015909
vn 0.129996 0.991462 0.010252
vn 0.021875 0.999744 0.005867
vn -0.017921 0.999838 -0.001521
vn 0.009060 0.999933 -0.007188
vn -0.980023 -0.197132 0.026345
vn -0.997235 0.074152 -0.004825
vn -0.998529 0.054094 0.003583
vn -0.998529 0.054094 0.003583
vn -0.997235 0.074152 -0.004825
vn -0.606529 0.795039 -0.005919
vn 0.021875 0.999744 0.005867
vn 0.009060 0.999933 -0.007188
vn 0.014416 0.999770 0.015909
vn 0.222515 0.974928 0.001284
vn 0.021875 0.999744 0.005867
vn 0.014416 0.999770 0.015909
vn 0.019330 0.996285 -0.083923
vn 0.011991 0.999880 -0.009813
vn 0.113376 0.993418 -0.016352
vn 0.113376 0.993418 -0.016352
vn 0.011991 0.999880 -0.009813
vn 0.021875 0.999744 0.005867
vn -0.010706 0.002128 0.999941
vn -0.014938 0.051456 0.998564
vn -0.707667 -0.328044 0.625776
vn 0.011991 0.999880 -0.009813
vn 0.013643 0.999774 0.016315
vn -0.017921 0.999838 -0.001521
vn -0.017921 0.999838 -0.001521
vn 0.021875 0.999744 0.005867
vn 0.011991 0.999880 -0.009813
vn -0.037545 -0.163917 -0.985759
vn 0.029272 -0.100317 -0.994525
vn -0.001180 -0.857885 -0.513841
vn -0.027980 0.999608 0.001105
vn -0.010582 0.999589 0.026635
vn -0.021477 0.999253 -0.032128
vn -0.007612 0.999807 0.018103
vn -0.010582 0.999589 0.026635
vn 0.009829 0.999761 0.019507
vn -0.012404 0.974358 0.224663
vn -0.924010 0.379991 0.042564
vn -0.014938 0.051456 0.998564
vn -0.012404 0.974358 0.224663
vn -0.296451 0.955020 -0.007265
vn -0.924010 0.379991 0.042564
vn -0.027980 0.999608 0.001105
vn -0.296451 0.955020 -0.007265
vn -0.012404 0.974358 0.224663
vn -0.296451 0.955020 -0.007265
vn -0.606529 0.795039 -0.005919
vn -0.997235 0.074152 -0.004825
vn -0.004099 0.176525 -0.984288
vn -0.000498 0.984180 -0.177172
vn -0.006272 0.964561 -0.263785
vn 0.019330 0.996285 -0.083923
vn -0.006272 0.964561 -0.263785
vn 0.005206 0.999960 -0.007338
vn 0.061300 0.989081 -0.134023
vn 0.991204 0.129307 -0.028194
vn 0.755514 0.098085 -0.647748
vn -0.011498 0.472740 -0.881127
vn -0.006272 0.964561 -0.263785
vn 0.019330 0.996285 -0.083923
vn 0.038109 0.082047 -0.995900
vn 0.002401 0.061494 -0.998105
vn 0.019330 0.996285 -0.083923
vn 0.038109 0.082047 -0.995900
vn 0.029272 -0.100317 -0.994525
vn 0.002401 0.061494 -0.998105
vn 0.009060 0.999933 -0.007188
vn -0.007612 0.999807 0.018103
vn 0.009829 0.999761 0.019507
vn -0.017921 0.999838 -0.001521
vn -0.021477 0.999253 -0.032128
vn 0.009060 0.999933 -0.007188
vn -0.980023 -0.197132 0.026345
vn -0.983533 -0.179454 -0.021443
vn -0.707667 -0.328044 0.625776
vn -0.707667 -0.328044 0.625776
vn -0.865204 0.062633 0.497493
vn -0.980023 -0.197132 0.026345
vn -0.001420 0.022653 -0.999742
vn -0.006272 0.964561 -0.263785
vn -0.011498 0.472740 -0.881127
vn -0.001420 0.022653 -0.999742
vn 0.002401 0.061494 -0.998105
vn 0.029272 -0.100317 -0.994525
vn -0.004099 0.176525 -0.984288
vn -0.001420 0.022653 -0.999742
vn -0.037545 -0.163917 -0.985759
vn -0.006272 0.964561 -0.263785
vn -0.001420 0.022653 -0.999742
vn -0.004099 0.176525 -0.984288
vn -0.983533 -0.179454 -0.021443
vn -0.995476 0.045215 -0.083563
vn -0.647437 -0.483785 -0.588878
vn -0.707667 -0.328044 0.625776
vn -0.983533 -0.179454 -0.021443
vn -0.647437 -0.483785 -0.588878
vn 0.991204 0.129307 -0.028194
vn 0.999305 0.037281 -0.000141
vn 0.999721 -0.001004 -0.023584
vn 0.991204 0.129307 -0.028194
vn 0.222515 0.974928 0.001284
vn 0.999305 0.037281 -0.000141
vn 0.999305 0.037281 -0.000141
vn 0.222515 0.974928 0.001284
vn 0.835027 0.550209 -0.000683
vn 0.835027 0.550209 -0.000683
vn 0.222515 0.974928 0.001284
vn 0.129996 0.991462 0.010252
vn -0.995476 0.045215 -0.083563
vn -0.038896 0.994313 -0.099139
vn -0.264790 0.077417 -0.961194
vn -0.038896 0.994313 -0.099139
vn -0.505266 0.862857 -0.013532
vn -0.312714 0.949822 0.007003
vn 0.999852 -0.000021 0.017217
vn 0.997459 0.024694 0.066830
vn 0.695628 0.003671 0.718393
vn -0.006272 0.964561 -0.263785
vn -0.020535 0.999776 0.005138
vn 0.005206 0.999960 -0.007338
vn 0.005206 0.999960 -0.007338
vn -0.020535 0.999776 0.005138
vn -0.000719 0.999964 -0.008463
vn 0.004433 0.828306 0.560258
vn -0.012404 0.974358 0.224663
vn -0.001509 0.058409 0.998292
vn 0.097021 0.994320 0.043763
vn -0.005753 0.858907 0.512099
vn 0.081863 0.162469 0.983312
vn 0.081863 0.162469 0.983312
vn -0.001509 0.058409 0.998292
vn 0.026449 0.007247 0.999624
vn 0.081863 0.162469 0.983312
vn -0.005753 0.858907 0.512099
vn -0.001509 0.058409 0.998292
vn 0.061300 0.989081 -0.134023
vn 0.019330 0.996285 -0.083923
vn 0.113376 0.993418 -0.016352
vn 0.038109 0.082047 -0.995900
vn 0.019330 0.996285 -0.083923
vn 0.061300 0.989081 -0.134023
vn -0.027980 0.999608 0.001105
vn -0.007896 0.999849 0.015500
vn -0.010582 0.999589 0.026635
vn -0.010582 0.999589 0.026635
vn -0.007896 0.999849 0.015500
vn 0.002351 0.999850 0.017185
vn -0.023614 0.999588 -0.016296
vn -0.013254 0.999883 0.007701
vn -0.020535 0.999776 0.005138
vn -0.020535 0.999776 0.005138
vn -0.006272 0.964561 -0.263785
vn -0.023614 0.999588 -0.016296
vn 0.009060 0.999933 -0.007188
vn 0.009829 0.999761 0.019507
vn 0.014416 0.999770 0.015909
vn 0.014416 0.999770 0.015909
vn 0.009829 0.999761 0.019507
vn 0.002351 0.999850 0.017185
vn 0.029272 -0.100317 -0.994525
vn 0.755514 0.098085 -0.647748
vn 0.605669 -0.217342 -0.765459
vn -0.001180 -0.857885 -0.513841
vn 0.029272 -0.100317 -0.994525
vn 0.605669 -0.217342 -0.765459
vn 0.009060 0.999933 -0.007188
vn -0.021477 0.999253 -0.032128
vn -0.007612 0.999807 0.018103
vn -0.007612 0.999807 0.018103
vn -0.021477 0.999253 -0.032128
vn -0.010582 0.999589 0.026635
vn 0.222515 0.974928 0.001284
vn 0.113376 0.993418 -0.016352
vn 0.021875 0.999744 0.005867
vn 0.991204 0.129307 -0.028194
vn 0.113376 0.993418 -0.016352
vn 0.222515 0.974928 0.001284
vn -0.995476 0.045215 -0.083563
vn -0.505266 0.862857 -0.013532
vn -0.038896 0.994313 -0.099139
vn -0.505266 0.862857 -0.013532
vn -0.995476 0.045215 -0.083563
vn -0.998529 0.054094 0.003583
vn -0.005753 0.858907 0.512099
vn 0.097021 0.994320 0.043763
vn 0.004433 0.828306 0.560258
vn -0.001509 0.058409 0.998292
vn -0.005753 0.858907 0.512099
vn 0.004433 0.828306 0.560258
vn -0.014938 0.051456 0.998564
vn -0.924010 0.379991 0.042564
vn -0.865204 0.062633 0.497493
vn -0.707667 -0.328044 0.625776
vn -0.014938 0.051456 0.998564
vn -0.865204 0.062633 0.497493
vn -0.023614 0.999588 -0.016296
vn -0.000498 0.984180 -0.177172
vn -0.038896 0.994313 -0.099139
vn -0.003599 0.109915 -0.993935
vn -0.038896 0.994313 -0.099139
vn -0.000498 0.984180 -0.177172
vn 0.038109 0.082047 -0.995900
vn 0.061300 0.989081 -0.134023
vn 0.755514 0.098085 -0.647748
vn 0.038109 0.082047 -0.995900
vn 0.755514 0.098085 -0.647748
vn 0.029272 -0.100317 -0.994525
vn -0.264790 0.077417 -0.961194
vn -0.038896 0.994313 -0.099139
vn -0.003599 0.109915 -0.993935
vn -0.003599 0.109915 -0.993935
vn -0.037545 -0.163917 -0.985759
vn -0.264790 0.077417 -0.961194
vn 0.014416 0.999770 0.015909
vn 0.002351 0.999850 0.017185
vn 0.129996 0.991462 0.010252
vn 0.002351 0.999850 0.017185
vn -0.012404 0.974358 0.224663
vn 0.097021 0.994320 0.043763
vn -0.023614 0.999588 -0.016296
vn -0.312714 0.949822 0.007003
vn -0.013254 0.999883 0.007701
vn -0.013254 0.999883 0.007701
vn -0.312714 0.949822 0.007003
vn -0.027980 0.999608 0.001105
vn 0.997459 0.024694 0.066830
vn 0.129996 0.991462 0.010252
vn 0.097021 0.994320 0.043763
vn 0.129996 0.991462 0.010252
vn 0.002351 0.999850 0.017185
vn 0.097021 0.994320 0.043763
vn -0.000719 0.999964 -0.008463
vn -0.013370 0.999911 0.000435
vn -0.021477 0.999253 -0.032128
vn -0.000719 0.999964 -0.008463
vn -0.020535 0.999776 0.005138
vn -0.013370 0.999911 0.000435
vn -0.027980 0.999608 0.001105
vn -0.606529 0.795039 -0.005919
vn -0.296451 0.955020 -0.007265
vn -0.027980 0.999608 0.001105
vn -0.312714 0.949822 0.007003
vn -0.606529 0.795039 -0.005919
vn 0.005206 0.999960 -0.007338
vn -0.000719 0.999964 -0.008463
vn 0.013643 0.999774 0.016315
vn 0.019330 0.996285 -0.083923
vn 0.005206 0.999960 -0.007338
vn 0.013643 0.999774 0.016315
vn -0.011498 0.472740 -0.881127
vn 0.002401 0.061494 -0.998105
vn -0.001420 0.022653 -0.999742
vn 0.002401 0.061494 -0.998105
vn -0.011498 0.472740 -0.881127
vn 0.019330 0.996285 -0.083923
s off
g suelo_a6:Tile1_01
usemtl suelo_a6:Tile3_01SG
f 2/1/1 63/2/2 49/3/3
f 39/4/4 51/5/5 5/6/6
f 41/7/7 20/8/8 15/9/9
f 45/10/10 14/11/11 3/12/12
f 10/13/13 9/14/14 37/15/15
f 3/12/16 14/11/17 27/16/18
f 61/17/19 38/18/20 5/6/21
f 37/15/22 24/19/23 40/20/24
f 41/7/25 6/21/26 20/8/27
f 12/22/28 31/23/29 62/24/30
f 33/25/31 59/26/32 49/3/33
f 41/7/34 26/27/35 6/21/36
f 55/28/37 24/19/38 63/29/39
f 24/19/40 43/30/41 40/20/42
f 10/13/43 32/31/44 9/14/45
f 12/22/46 66/32/47 31/23/48
f 47/33/49 67/34/50 11/35/51
f 50/36/52 48/37/53 62/24/54
f 30/38/55 7/39/56 66/32/57
f 28/40/58 65/41/59 30/38/60
f 60/42/61 13/43/62 15/9/63
f 13/44/64 34/45/65 53/46/66
f 45/47/67 31/23/68 14/48/69
f 37/15/70 58/49/71 10/13/72
f 8/50/73 60/42/74 15/9/75
f 16/51/76 31/23/77 19/52/78
f 26/27/79 64/53/80 6/21/81
f 5/6/82 29/54/83 17/55/84
f 17/55/85 18/56/86 5/6/87
f 43/30/88 18/57/89 17/58/90
f 61/59/91 59/26/92 38/60/93
f 46/61/94 6/21/95 16/62/96
f 46/61/97 54/63/98 6/21/99
f 46/64/100 3/12/101 54/65/102
f 21/66/103 66/32/104 7/39/105
f 4/67/106 63/29/107 24/19/108
f 28/40/109 67/34/110 65/41/111
f 44/68/112 21/66/113 7/39/114
f 42/69/115 23/70/116 64/71/117
f 25/72/118 28/40/119 36/73/120
f 37/15/121 9/14/122 24/19/123
f 24/19/124 9/14/125 4/67/126
f 25/72/127 36/73/128 23/70/129
f 42/69/130 25/72/131 23/70/132
f 47/33/133 11/35/134 53/46/135
f 53/46/136 11/35/137 25/72/138
f 27/16/139 14/11/140 57/74/141
f 11/35/142 67/34/143 28/40/144
f 28/40/145 25/72/146 11/35/147
f 5/6/148 51/5/149 29/54/150
f 66/32/151 48/37/152 30/38/153
f 52/75/154 48/37/155 50/36/156
f 31/23/157 10/76/158 14/48/159
f 31/23/160 32/77/161 10/76/162
f 66/32/163 32/77/164 31/23/165
f 32/31/166 4/67/167 9/14/168
f 38/60/169 59/26/170 33/25/171
f 47/33/172 33/25/173 22/78/174
f 34/79/175 13/43/176 60/42/177
f 1/80/178 33/25/179 47/33/180
f 35/81/181 68/82/182 47/33/183
f 35/83/184 51/5/185 68/84/186
f 36/73/187 52/75/188 50/36/189
f 28/40/190 30/38/191 36/73/192
f 37/15/193 40/20/194 57/85/195
f 57/85/196 58/49/197 37/15/198
f 39/4/199 33/86/200 1/87/201
f 39/4/202 68/84/203 51/5/204
f 38/18/205 39/4/206 5/6/207
f 33/86/208 39/4/209 38/18/210
f 40/20/211 43/30/212 17/58/213
f 57/85/214 40/20/215 17/58/216
f 13/43/217 41/7/218 15/9/219
f 13/43/220 42/88/221 41/7/222
f 41/7/223 42/88/224 26/27/225
f 26/89/226 42/69/227 64/71/228
f 43/30/229 2/90/230 18/57/231
f 2/1/232 55/91/233 63/2/234
f 20/8/235 6/21/236 54/63/237
f 33/25/238 44/68/239 22/78/240
f 22/78/241 44/68/242 65/41/243
f 19/52/244 31/23/245 45/47/246
f 16/51/247 56/92/248 46/93/249
f 46/64/250 45/10/251 3/12/252
f 46/93/253 56/92/254 45/47/255
f 34/45/256 47/33/257 53/46/258
f 35/81/259 47/33/260 34/45/261
f 66/32/262 12/22/263 48/37/264
f 48/37/265 12/22/266 62/24/267
f 49/3/268 21/66/269 44/68/270
f 44/68/271 33/25/272 49/3/273
f 36/73/274 50/36/275 23/70/276
f 23/70/277 50/36/278 62/24/279
f 51/5/280 60/94/281 8/95/282
f 29/54/283 51/5/284 8/95/285
f 36/73/286 30/38/287 52/75/288
f 52/75/289 30/38/290 48/37/291
f 42/69/292 53/46/293 25/72/294
f 13/43/295 53/96/296 42/88/297
f 43/30/298 55/28/299 2/90/300
f 55/28/301 43/30/302 24/19/303
f 56/92/304 16/51/305 19/52/306
f 45/47/307 56/92/308 19/52/309
f 14/97/310 10/13/311 58/49/312
f 57/74/313 14/11/314 58/98/315
f 49/3/316 59/26/317 2/1/318
f 61/59/319 2/1/320 59/26/321
f 35/99/322 34/79/323 60/42/324
f 35/83/325 60/94/326 51/5/327
f 18/56/328 2/100/329 61/17/330
f 61/17/331 5/6/332 18/56/333
f 23/70/334 62/24/335 64/71/336
f 62/24/337 31/23/338 16/51/339
f 49/3/340 63/2/341 21/66/342
f 21/66/343 63/2/344 66/32/345
f 6/21/346 64/53/347 16/62/348
f 64/71/349 62/24/350 16/51/351
f 65/41/352 7/39/353 30/38/354
f 65/41/355 44/68/356 7/39/357
f 66/32/358 4/101/359 32/77/360
f 66/32/361 63/2/362 4/101/363
f 22/78/364 65/41/365 67/34/366
f 47/33/367 22/78/368 67/34/369
f 1/87/370 68/84/371 39/4/372
f 68/82/373 1/80/374 47/33/375
